<mxfile host="app.diagrams.net" modified="2023-11-09T11:09:06.705Z" agent="Mozilla/5.0 (Windows NT 10.0; Win64; x64) AppleWebKit/537.36 (KHTML, like Gecko) Chrome/116.0.0.0 Safari/537.36 OPR/102.0.0.0" etag="YKe_Jsco5cHosggmHttc" version="22.1.0" type="device">
  <diagram name="Page-1" id="2cc2dc42-3aac-f2a9-1cec-7a8b7cbee084">
    <mxGraphModel dx="4099" dy="1904" grid="1" gridSize="10" guides="1" tooltips="1" connect="1" arrows="1" fold="1" page="1" pageScale="1" pageWidth="1100" pageHeight="850" background="#ffffff" math="0" shadow="0">
      <root>
        <mxCell id="0" />
        <mxCell id="1" parent="0" />
        <mxCell id="7026571954dc6520-1" value="" style="strokeWidth=1;shadow=0;dashed=0;align=center;html=1;shape=mxgraph.mockup.containers.browserWindow;rSize=0;strokeColor=#666666;mainText=,;recursiveResize=0;rounded=0;labelBackgroundColor=none;fontFamily=Verdana;fontSize=12" parent="1" vertex="1">
          <mxGeometry x="-1075" y="-835" width="1050" height="820" as="geometry" />
        </mxCell>
        <mxCell id="7026571954dc6520-2" value="Inicio" style="strokeWidth=1;shadow=0;dashed=0;align=center;html=1;shape=mxgraph.mockup.containers.anchor;fontSize=17;fontColor=#666666;align=left;" parent="7026571954dc6520-1" vertex="1">
          <mxGeometry x="60" y="12" width="110" height="26" as="geometry" />
        </mxCell>
        <mxCell id="7026571954dc6520-3" value="http://localhost:8080/index.php" style="strokeWidth=1;shadow=0;dashed=0;align=center;html=1;shape=mxgraph.mockup.containers.anchor;rSize=0;fontSize=17;fontColor=#666666;align=left;" parent="7026571954dc6520-1" vertex="1">
          <mxGeometry x="130" y="60" width="250" height="26" as="geometry" />
        </mxCell>
        <mxCell id="7026571954dc6520-4" value="Quien quiere se millonario?" style="text;html=1;points=[];align=left;verticalAlign=top;spacingTop=-4;fontSize=30;fontFamily=Verdana" parent="7026571954dc6520-1" vertex="1">
          <mxGeometry x="318" y="360" width="415" height="50" as="geometry" />
        </mxCell>
        <mxCell id="7026571954dc6520-18" value="EN" style="strokeWidth=1;shadow=0;dashed=0;align=center;html=1;shape=mxgraph.mockup.buttons.button;strokeColor=#666666;mainText=;buttonStyle=round;fontSize=17;fontStyle=0;fillColor=none;whiteSpace=wrap;rounded=0;labelBackgroundColor=none;" parent="7026571954dc6520-1" vertex="1">
          <mxGeometry x="825" y="125" width="60" height="30" as="geometry" />
        </mxCell>
        <mxCell id="Uhn1FKkM1tmpYa8xfzYB-26" value="ES" style="strokeWidth=1;shadow=0;dashed=0;align=center;html=1;shape=mxgraph.mockup.buttons.button;strokeColor=#666666;mainText=;buttonStyle=round;fontSize=17;fontStyle=0;fillColor=none;whiteSpace=wrap;rounded=0;labelBackgroundColor=none;" parent="7026571954dc6520-1" vertex="1">
          <mxGeometry x="965" y="125" width="60" height="30" as="geometry" />
        </mxCell>
        <mxCell id="Uhn1FKkM1tmpYa8xfzYB-27" value="CA" style="strokeWidth=1;shadow=0;dashed=0;align=center;html=1;shape=mxgraph.mockup.buttons.button;strokeColor=#666666;mainText=;buttonStyle=round;fontSize=17;fontStyle=0;fillColor=none;whiteSpace=wrap;rounded=0;labelBackgroundColor=none;" parent="7026571954dc6520-1" vertex="1">
          <mxGeometry x="895" y="125" width="60" height="30" as="geometry" />
        </mxCell>
        <mxCell id="Uhn1FKkM1tmpYa8xfzYB-28" value="JUGAR" style="strokeWidth=1;shadow=0;dashed=0;align=center;html=1;shape=mxgraph.mockup.buttons.button;strokeColor=#666666;mainText=;buttonStyle=round;fontSize=17;fontStyle=0;fillColor=none;whiteSpace=wrap;rounded=0;labelBackgroundColor=none;" parent="7026571954dc6520-1" vertex="1">
          <mxGeometry x="469" y="475" width="113" height="30" as="geometry" />
        </mxCell>
        <mxCell id="Uhn1FKkM1tmpYa8xfzYB-29" value="Hall of Fame" style="strokeWidth=1;shadow=0;dashed=0;align=center;html=1;shape=mxgraph.mockup.buttons.button;strokeColor=#666666;mainText=;buttonStyle=round;fontSize=17;fontStyle=0;fillColor=none;whiteSpace=wrap;rounded=0;labelBackgroundColor=none;" parent="7026571954dc6520-1" vertex="1">
          <mxGeometry x="469" y="525" width="113" height="30" as="geometry" />
        </mxCell>
        <mxCell id="D84-SkxCrQNAczPGOFoA-1" value="&lt;font style=&quot;font-size: 45px;&quot;&gt;Texto explicativo&lt;/font&gt;" style="text;html=1;strokeColor=none;fillColor=none;align=center;verticalAlign=middle;whiteSpace=wrap;rounded=0;" parent="7026571954dc6520-1" vertex="1">
          <mxGeometry x="275" y="585" width="515" height="155" as="geometry" />
        </mxCell>
        <mxCell id="a5ZCvegrhP_tMVhflJjH-1" value="Easter Egg" style="strokeWidth=1;shadow=0;dashed=0;align=center;html=1;shape=mxgraph.mockup.buttons.button;strokeColor=#666666;mainText=;buttonStyle=round;fontSize=17;fontStyle=0;fillColor=none;whiteSpace=wrap;rounded=0;labelBackgroundColor=none;" vertex="1" parent="7026571954dc6520-1">
          <mxGeometry x="469" y="745" width="113" height="30" as="geometry" />
        </mxCell>
        <mxCell id="a5ZCvegrhP_tMVhflJjH-24" value="Log in" style="strokeWidth=1;shadow=0;dashed=0;align=center;html=1;shape=mxgraph.mockup.buttons.button;strokeColor=#666666;mainText=;buttonStyle=round;fontSize=17;fontStyle=0;fillColor=none;whiteSpace=wrap;rounded=0;labelBackgroundColor=none;" vertex="1" parent="7026571954dc6520-1">
          <mxGeometry x="35" y="125" width="60" height="30" as="geometry" />
        </mxCell>
        <mxCell id="Uhn1FKkM1tmpYa8xfzYB-1" value="" style="strokeWidth=1;shadow=0;dashed=0;align=center;html=1;shape=mxgraph.mockup.containers.browserWindow;rSize=0;strokeColor=#666666;mainText=,;recursiveResize=0;rounded=0;labelBackgroundColor=none;fontFamily=Verdana;fontSize=12" parent="1" vertex="1">
          <mxGeometry x="40" y="-430" width="1050" height="990" as="geometry" />
        </mxCell>
        <mxCell id="Uhn1FKkM1tmpYa8xfzYB-2" value="Juego" style="strokeWidth=1;shadow=0;dashed=0;align=center;html=1;shape=mxgraph.mockup.containers.anchor;fontSize=17;fontColor=#666666;align=left;" parent="Uhn1FKkM1tmpYa8xfzYB-1" vertex="1">
          <mxGeometry x="60" y="12" width="110" height="26" as="geometry" />
        </mxCell>
        <mxCell id="Uhn1FKkM1tmpYa8xfzYB-3" value="http://localhost:8080/game.php" style="strokeWidth=1;shadow=0;dashed=0;align=center;html=1;shape=mxgraph.mockup.containers.anchor;rSize=0;fontSize=17;fontColor=#666666;align=left;" parent="Uhn1FKkM1tmpYa8xfzYB-1" vertex="1">
          <mxGeometry x="130" y="60" width="250" height="26" as="geometry" />
        </mxCell>
        <mxCell id="Uhn1FKkM1tmpYa8xfzYB-4" value="Pregunta 1" style="text;html=1;points=[];align=center;verticalAlign=top;spacingTop=-4;fontSize=30;fontFamily=Verdana" parent="Uhn1FKkM1tmpYa8xfzYB-1" vertex="1">
          <mxGeometry x="355" y="210" width="340" height="50" as="geometry" />
        </mxCell>
        <mxCell id="Uhn1FKkM1tmpYa8xfzYB-55" value="OPCION 1" style="strokeWidth=1;shadow=0;dashed=0;align=center;html=1;shape=mxgraph.mockup.buttons.button;strokeColor=#666666;mainText=;buttonStyle=round;fontSize=17;fontStyle=0;fillColor=none;whiteSpace=wrap;rounded=0;labelBackgroundColor=none;" parent="Uhn1FKkM1tmpYa8xfzYB-1" vertex="1">
          <mxGeometry x="20" y="310" width="505" height="45" as="geometry" />
        </mxCell>
        <mxCell id="Uhn1FKkM1tmpYa8xfzYB-56" value="OPCION 2" style="strokeWidth=1;shadow=0;dashed=0;align=center;html=1;shape=mxgraph.mockup.buttons.button;strokeColor=#666666;mainText=;buttonStyle=round;fontSize=17;fontStyle=0;fillColor=none;whiteSpace=wrap;rounded=0;labelBackgroundColor=none;" parent="Uhn1FKkM1tmpYa8xfzYB-1" vertex="1">
          <mxGeometry x="525" y="310" width="505" height="45" as="geometry" />
        </mxCell>
        <mxCell id="Uhn1FKkM1tmpYa8xfzYB-57" value="OPCION 3" style="strokeWidth=1;shadow=0;dashed=0;align=center;html=1;shape=mxgraph.mockup.buttons.button;strokeColor=#666666;mainText=;buttonStyle=round;fontSize=17;fontStyle=0;fillColor=none;whiteSpace=wrap;rounded=0;labelBackgroundColor=none;" parent="Uhn1FKkM1tmpYa8xfzYB-1" vertex="1">
          <mxGeometry x="20" y="355" width="505" height="45" as="geometry" />
        </mxCell>
        <mxCell id="Uhn1FKkM1tmpYa8xfzYB-58" value="OPCION 4" style="strokeWidth=1;shadow=0;dashed=0;align=center;html=1;shape=mxgraph.mockup.buttons.button;strokeColor=#666666;mainText=;buttonStyle=round;fontSize=17;fontStyle=0;fillColor=none;whiteSpace=wrap;rounded=0;labelBackgroundColor=none;" parent="Uhn1FKkM1tmpYa8xfzYB-1" vertex="1">
          <mxGeometry x="525" y="355" width="505" height="45" as="geometry" />
        </mxCell>
        <mxCell id="Uhn1FKkM1tmpYa8xfzYB-59" value="Pregunta 2" style="text;html=1;points=[];align=center;verticalAlign=top;spacingTop=-4;fontSize=30;fontFamily=Verdana" parent="Uhn1FKkM1tmpYa8xfzYB-1" vertex="1">
          <mxGeometry x="355" y="450" width="340" height="50" as="geometry" />
        </mxCell>
        <mxCell id="Uhn1FKkM1tmpYa8xfzYB-60" value="OPCION 1" style="strokeWidth=1;shadow=0;dashed=0;align=center;html=1;shape=mxgraph.mockup.buttons.button;strokeColor=#666666;mainText=;buttonStyle=round;fontSize=17;fontStyle=0;fillColor=none;whiteSpace=wrap;rounded=0;labelBackgroundColor=none;" parent="Uhn1FKkM1tmpYa8xfzYB-1" vertex="1">
          <mxGeometry x="20" y="540" width="505" height="45" as="geometry" />
        </mxCell>
        <mxCell id="Uhn1FKkM1tmpYa8xfzYB-61" value="OPCION 2" style="strokeWidth=1;shadow=0;dashed=0;align=center;html=1;shape=mxgraph.mockup.buttons.button;strokeColor=#666666;mainText=;buttonStyle=round;fontSize=17;fontStyle=0;fillColor=none;whiteSpace=wrap;rounded=0;labelBackgroundColor=none;" parent="Uhn1FKkM1tmpYa8xfzYB-1" vertex="1">
          <mxGeometry x="525" y="540" width="505" height="45" as="geometry" />
        </mxCell>
        <mxCell id="Uhn1FKkM1tmpYa8xfzYB-62" value="OPCION 3" style="strokeWidth=1;shadow=0;dashed=0;align=center;html=1;shape=mxgraph.mockup.buttons.button;strokeColor=#666666;mainText=;buttonStyle=round;fontSize=17;fontStyle=0;fillColor=none;whiteSpace=wrap;rounded=0;labelBackgroundColor=none;" parent="Uhn1FKkM1tmpYa8xfzYB-1" vertex="1">
          <mxGeometry x="20" y="585" width="505" height="45" as="geometry" />
        </mxCell>
        <mxCell id="Uhn1FKkM1tmpYa8xfzYB-63" value="OPCION 4" style="strokeWidth=1;shadow=0;dashed=0;align=center;html=1;shape=mxgraph.mockup.buttons.button;strokeColor=#666666;mainText=;buttonStyle=round;fontSize=17;fontStyle=0;fillColor=none;whiteSpace=wrap;rounded=0;labelBackgroundColor=none;" parent="Uhn1FKkM1tmpYa8xfzYB-1" vertex="1">
          <mxGeometry x="525" y="585" width="505" height="45" as="geometry" />
        </mxCell>
        <mxCell id="Uhn1FKkM1tmpYa8xfzYB-64" value="Pregunta 3" style="text;html=1;points=[];align=center;verticalAlign=top;spacingTop=-4;fontSize=30;fontFamily=Verdana" parent="Uhn1FKkM1tmpYa8xfzYB-1" vertex="1">
          <mxGeometry x="355" y="690" width="340" height="50" as="geometry" />
        </mxCell>
        <mxCell id="Uhn1FKkM1tmpYa8xfzYB-65" value="OPCION 1" style="strokeWidth=1;shadow=0;dashed=0;align=center;html=1;shape=mxgraph.mockup.buttons.button;strokeColor=#666666;mainText=;buttonStyle=round;fontSize=17;fontStyle=0;fillColor=none;whiteSpace=wrap;rounded=0;labelBackgroundColor=none;" parent="Uhn1FKkM1tmpYa8xfzYB-1" vertex="1">
          <mxGeometry x="20" y="770" width="505" height="45" as="geometry" />
        </mxCell>
        <mxCell id="Uhn1FKkM1tmpYa8xfzYB-66" value="OPCION 2" style="strokeWidth=1;shadow=0;dashed=0;align=center;html=1;shape=mxgraph.mockup.buttons.button;strokeColor=#666666;mainText=;buttonStyle=round;fontSize=17;fontStyle=0;fillColor=none;whiteSpace=wrap;rounded=0;labelBackgroundColor=none;" parent="Uhn1FKkM1tmpYa8xfzYB-1" vertex="1">
          <mxGeometry x="525" y="770" width="505" height="45" as="geometry" />
        </mxCell>
        <mxCell id="Uhn1FKkM1tmpYa8xfzYB-67" value="OPCION 3" style="strokeWidth=1;shadow=0;dashed=0;align=center;html=1;shape=mxgraph.mockup.buttons.button;strokeColor=#666666;mainText=;buttonStyle=round;fontSize=17;fontStyle=0;fillColor=none;whiteSpace=wrap;rounded=0;labelBackgroundColor=none;" parent="Uhn1FKkM1tmpYa8xfzYB-1" vertex="1">
          <mxGeometry x="20" y="815" width="505" height="45" as="geometry" />
        </mxCell>
        <mxCell id="Uhn1FKkM1tmpYa8xfzYB-68" value="OPCION 4" style="strokeWidth=1;shadow=0;dashed=0;align=center;html=1;shape=mxgraph.mockup.buttons.button;strokeColor=#666666;mainText=;buttonStyle=round;fontSize=17;fontStyle=0;fillColor=none;whiteSpace=wrap;rounded=0;labelBackgroundColor=none;" parent="Uhn1FKkM1tmpYa8xfzYB-1" vertex="1">
          <mxGeometry x="525" y="815" width="505" height="45" as="geometry" />
        </mxCell>
        <mxCell id="Uhn1FKkM1tmpYa8xfzYB-69" value="Siguiente pregunta" style="strokeWidth=1;shadow=0;dashed=0;align=center;html=1;shape=mxgraph.mockup.buttons.button;strokeColor=#666666;mainText=;buttonStyle=round;fontSize=17;fontStyle=0;fillColor=none;whiteSpace=wrap;rounded=0;labelBackgroundColor=none;" parent="Uhn1FKkM1tmpYa8xfzYB-1" vertex="1">
          <mxGeometry x="445.5" y="930" width="170" height="30" as="geometry" />
        </mxCell>
        <mxCell id="Uhn1FKkM1tmpYa8xfzYB-70" value="SCROLL" style="text;html=1;strokeColor=none;fillColor=none;align=center;verticalAlign=middle;whiteSpace=wrap;rounded=0;" parent="Uhn1FKkM1tmpYa8xfzYB-1" vertex="1">
          <mxGeometry x="985" y="425" width="60" height="30" as="geometry" />
        </mxCell>
        <mxCell id="Uhn1FKkM1tmpYa8xfzYB-71" value="Inicio" style="strokeWidth=1;shadow=0;dashed=0;align=center;html=1;shape=mxgraph.mockup.buttons.button;strokeColor=#666666;mainText=;buttonStyle=round;fontSize=17;fontStyle=0;fillColor=none;whiteSpace=wrap;rounded=0;labelBackgroundColor=none;" parent="Uhn1FKkM1tmpYa8xfzYB-1" vertex="1">
          <mxGeometry x="474" y="890" width="113" height="30" as="geometry" />
        </mxCell>
        <mxCell id="a5ZCvegrhP_tMVhflJjH-2" value="Tiempo restante" style="text;html=1;strokeColor=none;fillColor=none;align=center;verticalAlign=middle;whiteSpace=wrap;rounded=0;" vertex="1" parent="Uhn1FKkM1tmpYa8xfzYB-1">
          <mxGeometry x="483" y="260" width="95" height="30" as="geometry" />
        </mxCell>
        <mxCell id="a5ZCvegrhP_tMVhflJjH-3" value="Tiempo restante" style="text;html=1;strokeColor=none;fillColor=none;align=center;verticalAlign=middle;whiteSpace=wrap;rounded=0;" vertex="1" parent="Uhn1FKkM1tmpYa8xfzYB-1">
          <mxGeometry x="483" y="500" width="95" height="30" as="geometry" />
        </mxCell>
        <mxCell id="a5ZCvegrhP_tMVhflJjH-4" value="Tiempo restante" style="text;html=1;strokeColor=none;fillColor=none;align=center;verticalAlign=middle;whiteSpace=wrap;rounded=0;" vertex="1" parent="Uhn1FKkM1tmpYa8xfzYB-1">
          <mxGeometry x="483" y="735" width="92" height="30" as="geometry" />
        </mxCell>
        <mxCell id="a5ZCvegrhP_tMVhflJjH-6" value="Juego" style="text;html=1;points=[];align=center;verticalAlign=top;spacingTop=-4;fontSize=30;fontFamily=Verdana" vertex="1" parent="Uhn1FKkM1tmpYa8xfzYB-1">
          <mxGeometry x="310" y="140" width="415" height="50" as="geometry" />
        </mxCell>
        <mxCell id="a5ZCvegrhP_tMVhflJjH-7" value="Cronometro incremental" style="text;html=1;strokeColor=none;fillColor=none;align=center;verticalAlign=middle;whiteSpace=wrap;rounded=0;fontSize=18;" vertex="1" parent="Uhn1FKkM1tmpYa8xfzYB-1">
          <mxGeometry x="30" y="220" width="200" height="30" as="geometry" />
        </mxCell>
        <mxCell id="a5ZCvegrhP_tMVhflJjH-10" value="Zona&lt;br&gt;comodines" style="rounded=0;whiteSpace=wrap;html=1;" vertex="1" parent="Uhn1FKkM1tmpYa8xfzYB-1">
          <mxGeometry x="960" y="180" width="80" height="110" as="geometry" />
        </mxCell>
        <mxCell id="Uhn1FKkM1tmpYa8xfzYB-30" value="" style="strokeWidth=1;shadow=0;dashed=0;align=center;html=1;shape=mxgraph.mockup.containers.browserWindow;rSize=0;strokeColor=#666666;mainText=,;recursiveResize=0;rounded=0;labelBackgroundColor=none;fontFamily=Verdana;fontSize=24;" parent="1" vertex="1">
          <mxGeometry x="-1075" y="15" width="1050" height="820" as="geometry" />
        </mxCell>
        <mxCell id="Uhn1FKkM1tmpYa8xfzYB-31" value="Hall of Fame" style="strokeWidth=1;shadow=0;dashed=0;align=center;html=1;shape=mxgraph.mockup.containers.anchor;fontSize=17;fontColor=#666666;align=left;" parent="Uhn1FKkM1tmpYa8xfzYB-30" vertex="1">
          <mxGeometry x="60" y="12" width="110" height="26" as="geometry" />
        </mxCell>
        <mxCell id="Uhn1FKkM1tmpYa8xfzYB-32" value="http://localhost:8080/ranking.php" style="strokeWidth=1;shadow=0;dashed=0;align=center;html=1;shape=mxgraph.mockup.containers.anchor;rSize=0;fontSize=17;fontColor=#666666;align=left;" parent="Uhn1FKkM1tmpYa8xfzYB-30" vertex="1">
          <mxGeometry x="130" y="60" width="250" height="26" as="geometry" />
        </mxCell>
        <mxCell id="Uhn1FKkM1tmpYa8xfzYB-33" value="Hall of Fame" style="text;html=1;points=[];align=center;verticalAlign=top;spacingTop=-4;fontSize=30;fontFamily=Verdana" parent="Uhn1FKkM1tmpYa8xfzYB-30" vertex="1">
          <mxGeometry x="355" y="155" width="340" height="50" as="geometry" />
        </mxCell>
        <mxCell id="D84-SkxCrQNAczPGOFoA-2" value="Inicio" style="strokeWidth=1;shadow=0;dashed=0;align=center;html=1;shape=mxgraph.mockup.buttons.button;strokeColor=#666666;mainText=;buttonStyle=round;fontSize=17;fontStyle=0;fillColor=none;whiteSpace=wrap;rounded=0;labelBackgroundColor=none;" parent="Uhn1FKkM1tmpYa8xfzYB-30" vertex="1">
          <mxGeometry x="469" y="735" width="113" height="30" as="geometry" />
        </mxCell>
        <mxCell id="D84-SkxCrQNAczPGOFoA-3" value="Lista con puntuación, &lt;br&gt;nombre y tiempo" style="rounded=0;whiteSpace=wrap;html=1;fontSize=30;" parent="Uhn1FKkM1tmpYa8xfzYB-30" vertex="1">
          <mxGeometry x="325" y="275" width="400" height="400" as="geometry" />
        </mxCell>
        <mxCell id="Uhn1FKkM1tmpYa8xfzYB-97" value="" style="strokeWidth=1;shadow=0;dashed=0;align=center;html=1;shape=mxgraph.mockup.containers.browserWindow;rSize=0;strokeColor=#666666;mainText=,;recursiveResize=0;rounded=0;labelBackgroundColor=none;fontFamily=Verdana;fontSize=12" parent="1" vertex="1">
          <mxGeometry x="1125" y="-835" width="1050" height="820" as="geometry" />
        </mxCell>
        <mxCell id="Uhn1FKkM1tmpYa8xfzYB-98" value="WIN" style="strokeWidth=1;shadow=0;dashed=0;align=center;html=1;shape=mxgraph.mockup.containers.anchor;fontSize=17;fontColor=#666666;align=left;" parent="Uhn1FKkM1tmpYa8xfzYB-97" vertex="1">
          <mxGeometry x="60" y="12" width="110" height="26" as="geometry" />
        </mxCell>
        <mxCell id="Uhn1FKkM1tmpYa8xfzYB-99" value="http://localhost:8080/win.php" style="strokeWidth=1;shadow=0;dashed=0;align=center;html=1;shape=mxgraph.mockup.containers.anchor;rSize=0;fontSize=17;fontColor=#666666;align=left;" parent="Uhn1FKkM1tmpYa8xfzYB-97" vertex="1">
          <mxGeometry x="130" y="60" width="250" height="26" as="geometry" />
        </mxCell>
        <mxCell id="Uhn1FKkM1tmpYa8xfzYB-100" value="FELICIDADES! Has ganado" style="text;html=1;points=[];align=left;verticalAlign=top;spacingTop=-4;fontSize=30;fontFamily=Verdana" parent="Uhn1FKkM1tmpYa8xfzYB-97" vertex="1">
          <mxGeometry x="318" y="360" width="415" height="50" as="geometry" />
        </mxCell>
        <mxCell id="Uhn1FKkM1tmpYa8xfzYB-104" value="Inicio" style="strokeWidth=1;shadow=0;dashed=0;align=center;html=1;shape=mxgraph.mockup.buttons.button;strokeColor=#666666;mainText=;buttonStyle=round;fontSize=17;fontStyle=0;fillColor=none;whiteSpace=wrap;rounded=0;labelBackgroundColor=none;" parent="Uhn1FKkM1tmpYa8xfzYB-97" vertex="1">
          <mxGeometry x="469" y="475" width="113" height="30" as="geometry" />
        </mxCell>
        <mxCell id="Uhn1FKkM1tmpYa8xfzYB-105" value="Publicar" style="strokeWidth=1;shadow=0;dashed=0;align=center;html=1;shape=mxgraph.mockup.buttons.button;strokeColor=#666666;mainText=;buttonStyle=round;fontSize=17;fontStyle=0;fillColor=none;whiteSpace=wrap;rounded=0;labelBackgroundColor=none;" parent="Uhn1FKkM1tmpYa8xfzYB-97" vertex="1">
          <mxGeometry x="468.5" y="525" width="113" height="30" as="geometry" />
        </mxCell>
        <mxCell id="D84-SkxCrQNAczPGOFoA-4" value="Hall of Fame" style="strokeWidth=1;shadow=0;dashed=0;align=center;html=1;shape=mxgraph.mockup.buttons.button;strokeColor=#666666;mainText=;buttonStyle=round;fontSize=17;fontStyle=0;fillColor=none;whiteSpace=wrap;rounded=0;labelBackgroundColor=none;" parent="Uhn1FKkM1tmpYa8xfzYB-97" vertex="1">
          <mxGeometry x="469" y="575" width="113" height="30" as="geometry" />
        </mxCell>
        <mxCell id="Uhn1FKkM1tmpYa8xfzYB-106" value="" style="strokeWidth=1;shadow=0;dashed=0;align=center;html=1;shape=mxgraph.mockup.containers.browserWindow;rSize=0;strokeColor=#666666;mainText=,;recursiveResize=0;rounded=0;labelBackgroundColor=none;fontFamily=Verdana;fontSize=12" parent="1" vertex="1">
          <mxGeometry x="1120" y="15" width="1050" height="820" as="geometry" />
        </mxCell>
        <mxCell id="Uhn1FKkM1tmpYa8xfzYB-107" value="GAME OVER" style="strokeWidth=1;shadow=0;dashed=0;align=center;html=1;shape=mxgraph.mockup.containers.anchor;fontSize=17;fontColor=#666666;align=left;" parent="Uhn1FKkM1tmpYa8xfzYB-106" vertex="1">
          <mxGeometry x="60" y="12" width="110" height="26" as="geometry" />
        </mxCell>
        <mxCell id="Uhn1FKkM1tmpYa8xfzYB-108" value="http://localhost:8080/lose.php" style="strokeWidth=1;shadow=0;dashed=0;align=center;html=1;shape=mxgraph.mockup.containers.anchor;rSize=0;fontSize=17;fontColor=#666666;align=left;" parent="Uhn1FKkM1tmpYa8xfzYB-106" vertex="1">
          <mxGeometry x="130" y="60" width="250" height="26" as="geometry" />
        </mxCell>
        <mxCell id="Uhn1FKkM1tmpYa8xfzYB-109" value="GAME OVER" style="text;html=1;points=[];align=left;verticalAlign=top;spacingTop=-4;fontSize=30;fontFamily=Verdana" parent="Uhn1FKkM1tmpYa8xfzYB-106" vertex="1">
          <mxGeometry x="434" y="355" width="182" height="50" as="geometry" />
        </mxCell>
        <mxCell id="Uhn1FKkM1tmpYa8xfzYB-110" value="Inicio" style="strokeWidth=1;shadow=0;dashed=0;align=center;html=1;shape=mxgraph.mockup.buttons.button;strokeColor=#666666;mainText=;buttonStyle=round;fontSize=17;fontStyle=0;fillColor=none;whiteSpace=wrap;rounded=0;labelBackgroundColor=none;" parent="Uhn1FKkM1tmpYa8xfzYB-106" vertex="1">
          <mxGeometry x="469" y="475" width="113" height="30" as="geometry" />
        </mxCell>
        <mxCell id="D84-SkxCrQNAczPGOFoA-5" value="Hall of Fame" style="strokeWidth=1;shadow=0;dashed=0;align=center;html=1;shape=mxgraph.mockup.buttons.button;strokeColor=#666666;mainText=;buttonStyle=round;fontSize=17;fontStyle=0;fillColor=none;whiteSpace=wrap;rounded=0;labelBackgroundColor=none;" parent="Uhn1FKkM1tmpYa8xfzYB-106" vertex="1">
          <mxGeometry x="469" y="535" width="113" height="30" as="geometry" />
        </mxCell>
        <mxCell id="a5ZCvegrhP_tMVhflJjH-12" value="" style="strokeWidth=1;shadow=0;dashed=0;align=center;html=1;shape=mxgraph.mockup.containers.browserWindow;rSize=0;strokeColor=#666666;mainText=,;recursiveResize=0;rounded=0;labelBackgroundColor=none;fontFamily=Verdana;fontSize=12" vertex="1" parent="1">
          <mxGeometry x="-2170" y="-835" width="1050" height="820" as="geometry" />
        </mxCell>
        <mxCell id="a5ZCvegrhP_tMVhflJjH-13" value="Login" style="strokeWidth=1;shadow=0;dashed=0;align=center;html=1;shape=mxgraph.mockup.containers.anchor;fontSize=17;fontColor=#666666;align=left;" vertex="1" parent="a5ZCvegrhP_tMVhflJjH-12">
          <mxGeometry x="60" y="12" width="110" height="26" as="geometry" />
        </mxCell>
        <mxCell id="a5ZCvegrhP_tMVhflJjH-14" value="http://localhost:8080/login.php" style="strokeWidth=1;shadow=0;dashed=0;align=center;html=1;shape=mxgraph.mockup.containers.anchor;rSize=0;fontSize=17;fontColor=#666666;align=left;" vertex="1" parent="a5ZCvegrhP_tMVhflJjH-12">
          <mxGeometry x="130" y="60" width="250" height="26" as="geometry" />
        </mxCell>
        <mxCell id="a5ZCvegrhP_tMVhflJjH-23" value="" style="rounded=0;whiteSpace=wrap;html=1;" vertex="1" parent="a5ZCvegrhP_tMVhflJjH-12">
          <mxGeometry x="278" y="223" width="485" height="317" as="geometry" />
        </mxCell>
        <mxCell id="a5ZCvegrhP_tMVhflJjH-25" value="Log in" style="text;html=1;strokeColor=none;fillColor=none;align=center;verticalAlign=middle;whiteSpace=wrap;rounded=0;fontSize=18;" vertex="1" parent="a5ZCvegrhP_tMVhflJjH-12">
          <mxGeometry x="490" y="265" width="60" height="30" as="geometry" />
        </mxCell>
        <mxCell id="a5ZCvegrhP_tMVhflJjH-26" value="Username:" style="text;html=1;strokeColor=none;fillColor=none;align=center;verticalAlign=middle;whiteSpace=wrap;rounded=0;fontSize=16;" vertex="1" parent="a5ZCvegrhP_tMVhflJjH-12">
          <mxGeometry x="350" y="335" width="60" height="30" as="geometry" />
        </mxCell>
        <mxCell id="a5ZCvegrhP_tMVhflJjH-27" value="Password:" style="text;html=1;strokeColor=none;fillColor=none;align=center;verticalAlign=middle;whiteSpace=wrap;rounded=0;fontSize=16;" vertex="1" parent="a5ZCvegrhP_tMVhflJjH-12">
          <mxGeometry x="350" y="395" width="60" height="30" as="geometry" />
        </mxCell>
        <mxCell id="a5ZCvegrhP_tMVhflJjH-28" value="" style="rounded=0;whiteSpace=wrap;html=1;" vertex="1" parent="a5ZCvegrhP_tMVhflJjH-12">
          <mxGeometry x="420" y="340" width="280" height="20" as="geometry" />
        </mxCell>
        <mxCell id="a5ZCvegrhP_tMVhflJjH-29" value="" style="rounded=0;whiteSpace=wrap;html=1;" vertex="1" parent="a5ZCvegrhP_tMVhflJjH-12">
          <mxGeometry x="420" y="400" width="280" height="20" as="geometry" />
        </mxCell>
        <mxCell id="a5ZCvegrhP_tMVhflJjH-31" value="Submit" style="strokeWidth=1;shadow=0;dashed=0;align=center;html=1;shape=mxgraph.mockup.buttons.button;strokeColor=#666666;mainText=;buttonStyle=round;fontSize=17;fontStyle=0;fillColor=none;whiteSpace=wrap;rounded=0;labelBackgroundColor=none;" vertex="1" parent="a5ZCvegrhP_tMVhflJjH-12">
          <mxGeometry x="468.5" y="475" width="113" height="30" as="geometry" />
        </mxCell>
        <mxCell id="a5ZCvegrhP_tMVhflJjH-32" value="Inicio" style="strokeWidth=1;shadow=0;dashed=0;align=center;html=1;shape=mxgraph.mockup.buttons.button;strokeColor=#666666;mainText=;buttonStyle=round;fontSize=17;fontStyle=0;fillColor=none;whiteSpace=wrap;rounded=0;labelBackgroundColor=none;" vertex="1" parent="a5ZCvegrhP_tMVhflJjH-12">
          <mxGeometry x="468.5" y="540" width="113" height="30" as="geometry" />
        </mxCell>
        <mxCell id="a5ZCvegrhP_tMVhflJjH-33" value="" style="strokeWidth=1;shadow=0;dashed=0;align=center;html=1;shape=mxgraph.mockup.containers.browserWindow;rSize=0;strokeColor=#666666;mainText=,;recursiveResize=0;rounded=0;labelBackgroundColor=none;fontFamily=Verdana;fontSize=12" vertex="1" parent="1">
          <mxGeometry x="-2170" y="15" width="1050" height="820" as="geometry" />
        </mxCell>
        <mxCell id="a5ZCvegrhP_tMVhflJjH-34" value="Create" style="strokeWidth=1;shadow=0;dashed=0;align=center;html=1;shape=mxgraph.mockup.containers.anchor;fontSize=17;fontColor=#666666;align=left;" vertex="1" parent="a5ZCvegrhP_tMVhflJjH-33">
          <mxGeometry x="60" y="12" width="110" height="26" as="geometry" />
        </mxCell>
        <mxCell id="a5ZCvegrhP_tMVhflJjH-35" value="http://localhost:8080/create.php" style="strokeWidth=1;shadow=0;dashed=0;align=center;html=1;shape=mxgraph.mockup.containers.anchor;rSize=0;fontSize=17;fontColor=#666666;align=left;" vertex="1" parent="a5ZCvegrhP_tMVhflJjH-33">
          <mxGeometry x="130" y="60" width="250" height="26" as="geometry" />
        </mxCell>
        <mxCell id="a5ZCvegrhP_tMVhflJjH-36" value="Formulario para añadir preguntas" style="rounded=0;whiteSpace=wrap;html=1;fontSize=20;" vertex="1" parent="a5ZCvegrhP_tMVhflJjH-33">
          <mxGeometry x="235" y="185" width="570" height="550" as="geometry" />
        </mxCell>
        <mxCell id="a5ZCvegrhP_tMVhflJjH-44" value="Crear preguntas" style="text;html=1;strokeColor=none;fillColor=none;align=center;verticalAlign=middle;whiteSpace=wrap;rounded=0;fontSize=17;" vertex="1" parent="a5ZCvegrhP_tMVhflJjH-33">
          <mxGeometry x="465" y="135" width="110" height="30" as="geometry" />
        </mxCell>
        <mxCell id="a5ZCvegrhP_tMVhflJjH-45" value="Inicio" style="strokeWidth=1;shadow=0;dashed=0;align=center;html=1;shape=mxgraph.mockup.buttons.button;strokeColor=#666666;mainText=;buttonStyle=round;fontSize=17;fontStyle=0;fillColor=none;whiteSpace=wrap;rounded=0;labelBackgroundColor=none;" vertex="1" parent="a5ZCvegrhP_tMVhflJjH-33">
          <mxGeometry x="468.5" y="755" width="113" height="30" as="geometry" />
        </mxCell>
      </root>
    </mxGraphModel>
  </diagram>
</mxfile>
